name D:\school\WTK\thesis\model\3dpredictsim\Results\batch_windlass\Pog_s1_tmt_aCst_d05_k1000_WL10_ig24_act_TTC.mot
datacolumns 128
datarows 4
range 1.17911132 1.21448466
endheader
time	pelvis_tilt	pelvis_list	pelvis_rotation	pelvis_tx	pelvis_ty	pelvis_tz	hip_flexion_l	hip_adduction_l	hip_rotation_l	hip_flexion_r	hip_adduction_r	hip_rotation_r	knee_angle_l	knee_angle_r	ankle_angle_l	ankle_angle_r	subtalar_angle_l	subtalar_angle_r	tmt_angle_l	tmt_angle_r	mtp_angle_l	mtp_angle_r	lumbar_extension	lumbar_bending	lumbar_rotation	arm_flex_l	arm_add_l	arm_rot_l	arm_flex_r	arm_add_r	arm_rot_r	elbow_flex_l	elbow_flex_r	pro_sup_l	pro_sup_r	glut_med1_l/activation	glut_med2_l/activation	glut_med3_l/activation	glut_min1_l/activation	glut_min2_l/activation	glut_min3_l/activation	semimem_l/activation	semiten_l/activation	bifemlh_l/activation	bifemsh_l/activation	sar_l/activation	add_long_l/activation	add_brev_l/activation	add_mag1_l/activation	add_mag2_l/activation	add_mag3_l/activation	tfl_l/activation	pect_l/activation	grac_l/activation	glut_max1_l/activation	glut_max2_l/activation	glut_max3_l/activation	iliacus_l/activation	psoas_l/activation	quad_fem_l/activation	gem_l/activation	peri_l/activation	rect_fem_l/activation	vas_med_l/activation	vas_int_l/activation	vas_lat_l/activation	med_gas_l/activation	lat_gas_l/activation	soleus_l/activation	tib_post_l/activation	flex_dig_l/activation	flex_hal_l/activation	tib_ant_l/activation	per_brev_l/activation	per_long_l/activation	per_tert_l/activation	ext_dig_l/activation	ext_hal_l/activation	ercspn_l/activation	intobl_l/activation	extobl_l/activation	glut_med1_r/activation	glut_med2_r/activation	glut_med3_r/activation	glut_min1_r/activation	glut_min2_r/activation	glut_min3_r/activation	semimem_r/activation	semiten_r/activation	bifemlh_r/activation	bifemsh_r/activation	sar_r/activation	add_long_r/activation	add_brev_r/activation	add_mag1_r/activation	add_mag2_r/activation	add_mag3_r/activation	tfl_r/activation	pect_r/activation	grac_r/activation	glut_max1_r/activation	glut_max2_r/activation	glut_max3_r/activation	iliacus_r/activation	psoas_r/activation	quad_fem_r/activation	gem_r/activation	peri_r/activation	rect_fem_r/activation	vas_med_r/activation	vas_int_r/activation	vas_lat_r/activation	med_gas_r/activation	lat_gas_r/activation	soleus_r/activation	tib_post_r/activation	flex_dig_r/activation	flex_hal_r/activation	tib_ant_r/activation	per_brev_r/activation	per_long_r/activation	per_tert_r/activation	ext_dig_r/activation	ext_hal_r/activation	ercspn_r/activation	intobl_r/activation	extobl_r/activation	
          1.17911132	         -2.92648408	         -0.39737091	          8.60242627	          1.47388915	          0.85630896	         -0.00150163	        -16.23119504	         -2.33213970	          8.82107617	         32.79370555	         -0.65034058	         -1.09685206	        -16.81083233	        -20.53490152	        -11.97403747	         -0.60279504	         18.35367843	          7.21423838	         -3.05460847	          0.02543283	         33.54546330	          0.09192249	          1.13572052	         -2.38903217	         -2.67564370	          3.18022730	        -13.48983161	         16.07911171	        -14.40695021	        -13.63917444	         10.75163699	         40.10704605	         19.03043617	         86.51662706	         86.51662706	          0.14256574	          0.06004250	          0.06896074	          0.18200314	          0.12268191	          0.08564719	          0.05000102	          0.05000011	          0.05000011	          0.05000007	          0.07158302	          0.13307118	          0.10140106	          0.05000611	          0.05000346	          0.05000051	          0.14981885	          0.06014301	          0.05000131	          0.05000365	          0.05000276	          0.05000483	          0.31362321	          0.59254263	          0.05006943	          0.05000130	          0.07841257	          0.27598913	          0.05982676	          0.07587904	          0.08849403	          0.14141690	          0.20431514	          0.05000001	          0.14055443	          0.15386416	          0.16455051	          0.14983946	          0.47697038	          0.37177708	          0.46810714	          0.37536457	          0.17134921	          0.05000000	          0.05855660	          0.05553567	          0.11485365	          0.05000015	          0.05000051	          0.05000028	          0.05000029	          0.05000037	          0.09697714	          0.07158296	          0.16084025	          0.06145273	          0.05000309	          0.05982599	          0.05983342	          0.19953427	          0.17859956	          0.14603909	          0.05000012	          0.05010238	          0.09106878	          0.05751934	          0.11194818	          0.14243539	          0.07280289	          0.07273824	          0.18238893	          0.05000567	          0.05000022	          0.05000003	          0.09157184	          0.09375326	          0.08755580	          0.06756583	          0.05982602	          0.05982592	          0.05000003	          0.05000106	          0.05982586	          0.47126609	          0.20875327	          0.12261702	          0.28373603	          0.50442015	          0.05000006	          0.05000001	          0.13090415	          0.13154291	
          1.19090244	         -2.91573962	         -0.34897724	          8.76412600	          1.49282805	          0.85470812	         -0.00122180	        -16.27083095	         -2.50374886	          8.65542612	         32.30608032	         -0.42128019	         -0.90435747	        -18.20365455	        -20.87882668	        -14.73666608	         -0.92151550	         18.66178325	          6.73631648	         -3.41024334	          0.02280543	         34.48900630	          0.25303621	          1.36692505	         -2.20090768	         -2.74269439	          2.84046289	        -13.53831242	         16.38935109	        -15.71663781	        -13.62241221	         10.91766753	         40.98766993	         18.96002197	         86.51662706	         86.51662706	          0.11915048	          0.05018108	          0.05763510	          0.15211063	          0.10253243	          0.07158058	          0.05423602	          0.05000191	          0.05650033	          0.05000417	          0.05982633	          0.23424817	          0.15393416	          0.26240486	          0.05002506	          0.07534763	          0.12521234	          0.08130195	          0.07158110	          0.05000083	          0.05000052	          0.05000042	          0.26211313	          0.49522232	          0.05000397	          0.07158274	          0.07158257	          0.23066014	          0.05000074	          0.06341658	          0.14121826	          0.11819031	          0.17075802	          0.05000000	          0.11746950	          0.12859322	          0.13752442	          0.36497782	          0.48917967	          0.35926262	          0.70219999	          0.52242138	          0.25373152	          0.05000002	          0.07158282	          0.07158280	          0.13709155	          0.06897467	          0.05005849	          0.05000031	          0.05000043	          0.05000068	          0.08104943	          0.05982606	          0.13442354	          0.05135965	          0.05000022	          0.05000015	          0.05000633	          0.28648691	          0.24577491	          0.16369499	          0.05982588	          0.05000039	          0.07611160	          0.10794122	          0.15091157	          0.16774710	          0.06084562	          0.06079160	          0.24635792	          0.05000029	          0.06121282	          0.07158280	          0.23984527	          0.22308295	          0.20080284	          0.05646869	          0.05000008	          0.05000000	          0.05000003	          0.05000013	          0.05000004	          0.63824137	          0.17446723	          0.10247816	          0.55729625	          0.55589946	          0.34121134	          0.05000000	          0.10940420	          0.10993804	
          1.20269355	         -2.89999515	         -0.31390786	          8.89127265	          1.51186777	          0.85278477	         -0.00095327	        -16.11042206	         -2.64528741	          8.49572464	         31.67744723	         -0.16124157	         -0.64461607	        -19.98575097	        -21.89544143	        -17.18542762	         -0.94841162	         18.91066335	          6.21072202	         -3.54319376	         -0.14426955	         34.07721909	          0.34938498	          1.59846913	         -1.98443372	         -2.79269101	          2.45581997	        -13.60232083	         16.65101455	        -16.98269730	        -13.62078981	         11.17912364	         41.85885891	         18.84234893	         86.51662706	         86.51662706	          0.09958628	          0.05982594	          0.05982592	          0.12712772	          0.08569234	          0.05982570	          0.08003049	          0.05000049	          0.05684663	          0.05000004	          0.05000049	          0.19577484	          0.24620749	          0.21930703	          0.05988343	          0.06297261	          0.10464729	          0.07063063	          0.05982603	          0.05982595	          0.05982604	          0.05982606	          0.21906317	          0.47816650	          0.05982596	          0.05982606	          0.05982573	          0.19277607	          0.08680222	          0.06268256	          0.11802433	          0.09877851	          0.14271239	          0.05000053	          0.09817608	          0.10747284	          0.11493715	          0.30503679	          0.40883609	          0.30896804	          0.79717202	          0.64206450	          0.45617059	          0.09013875	          0.05982592	          0.05982592	          0.25232002	          0.29862126	          0.46813965	          0.14361660	          0.05000105	          0.37391967	          0.07918092	          0.05000015	          0.11234559	          0.05000002	          0.05000029	          0.07158292	          0.16072023	          0.23943392	          0.23364637	          0.18795719	          0.05000008	          0.06062553	          0.08564965	          0.21311248	          0.22828764	          0.21861689	          0.05982591	          0.05184562	          0.20589567	          0.12261510	          0.29448281	          0.05982591	          0.23141563	          0.22615578	          0.21735787	          0.05982591	          0.05982590	          0.05982592	          0.15136866	          0.05000033	          0.05982611	          0.54463206	          0.14581240	          0.08564695	          0.46576484	          0.47660364	          0.28517032	          0.05000009	          0.09143544	          0.09188161	
          1.21448466	         -2.88337840	         -0.29202460	          8.97767377	          1.53069306	          0.85086372	         -0.00068216	        -15.73152309	         -2.76480507	          8.34189339	         30.94498408	          0.12578559	         -0.34782217	        -22.13055994	        -22.93276636	        -19.25758893	         -0.71939067	         19.07481907	          5.66177548	         -3.43123693	         -0.22658333	         31.95671788	          0.43278997	          1.80977600	         -1.74414128	         -2.82869711	          2.08804710	        -13.66309517	         16.88882378	        -18.12031960	        -13.62264940	         11.54403647	         42.63103459	         18.61834317	         86.51662706	         86.51662706	          0.09454959	          0.05000004	          0.05000001	          0.12766482	          0.07161811	          0.05000008	          0.11230797	          0.05000004	          0.05000005	          0.05000007	          0.05033853	          0.17665488	          0.20576997	          0.18328767	          0.05004820	          0.05262997	          0.08745991	          0.05903189	          0.05000018	          0.05000032	          0.05000023	          0.05000017	          0.18308383	          0.44869258	          0.05000004	          0.05000018	          0.05000003	          0.16111416	          0.07596975	          0.05238752	          0.11535806	          0.08255494	          0.11927304	          0.05000004	          0.08205146	          0.08982133	          0.09605967	          0.27403595	          0.34168818	          0.25822270	          0.66624304	          0.78859810	          0.38124825	          0.12378196	          0.05000000	          0.05000002	          0.34811458	          0.46001663	          0.55959374	          0.15194262	          0.33815659	          0.31909739	          0.06617610	          0.07486211	          0.09389374	          0.05982609	          0.05000022	          0.05982601	          0.13432323	          0.20010889	          0.21459950	          0.19007759	          0.05000007	          0.05066835	          0.07158278	          0.33176936	          0.28032942	          0.22966561	          0.05000002	          0.05000001	          0.18175812	          0.10247667	          0.24611652	          0.05000000	          0.32492207	          0.32057893	          0.30493925	          0.05000000	          0.05000000	          0.05000000	          0.15256591	          0.07933109	          0.05000030	          0.65813446	          0.12186389	          0.07158013	          0.38926679	          0.49196049	          0.38425577	          0.05235679	          0.07641791	          0.07679079	
